<!-- <?xml version="1.0" encoding="UTF-8" standalone="no"?> -->
<svg xmlns:dc="http://purl.org/dc/elements/1.1/" xmlns:cc="http://creativecommons.org/ns#"
  xmlns:rdf="http://www.w3.org/1999/02/22-rdf-syntax-ns#" xmlns:svg="http://www.w3.org/2000/svg"
  xmlns="http://www.w3.org/2000/svg" viewBox="0 0 492 188" height="188" width="492"
  xml:space="preserve" id="svg2" version="1.1">
  <g transform="matrix(1.3333333,0,0,-1.3333333,0,188)" id="g10">
    <g id="g12">
      <g clip-path="url(#clipPath18)" id="g14">
        <g transform="translate(30.5453,86.2608)" id="g20">
          <path id="path22" style="fill:#2f455c;fill-opacity:1;fill-rule:nonzero;stroke:none"
            d="m 0,0 c 0,-11.084 6.846,-18.513 17.183,-18.887 l 18.238,-0.03 c 1.744,-0.003 3.157,-1.418 3.157,-3.162 v -7.165 c 0,-1.739 -1.402,-3.152 -3.14,-3.162 -5.811,-0.032 -17.697,-0.099 -18.255,-0.099 -20.085,0 -33.553,13.002 -33.553,32.505 0,19.388 13.468,32.39 33.553,32.39 h 18.234 c 1.744,0 3.161,-1.417 3.161,-3.163 v -7.146 c 0,-1.745 -1.413,-3.158 -3.157,-3.162 L 17.183,18.887 C 6.846,18.513 0,11.087 0,0" />
        </g>
        <g transform="translate(119.0878,91.2525)" id="g24">
          <path id="path26" style="fill:#2f455c;fill-opacity:1;fill-rule:nonzero;stroke:none"
            d="m 0,0 c 1.404,0 2.481,1.299 2.182,2.671 -1.72,7.862 -6.532,12.306 -14.178,12.306 -7.529,0 -12.233,-4.426 -14.025,-12.259 C -26.34,1.332 -25.266,0 -23.844,0 Z m 18.987,-8.685 c -0.11,-1.133 -1.072,-1.995 -2.21,-1.995 h -40.619 c -1.422,0 -2.502,-1.329 -2.175,-2.712 1.711,-7.236 6.292,-11.683 14.485,-11.683 6.378,0 11.594,2.898 15.309,7.416 l -0.005,0.006 h 0.012 c 0.002,0.003 0.006,0.006 0.006,0.008 l 0.018,-0.008 h 11.288 c 1.509,0 2.617,-1.494 2.118,-2.919 -6.156,-17.593 -28.513,-16.925 -28.513,-16.925 -19.158,0 -31.927,12.77 -31.927,32.043 0,19.734 12.421,32.852 31.23,32.852 18.691,0 31.227,-12.537 31.227,-31.46 0,-1.489 -0.103,-3.137 -0.244,-4.623" />
        </g>
        <g transform="translate(183.5336,116.9668)" id="g28">
          <path id="path30" style="fill:#2f455c;fill-opacity:1;fill-rule:nonzero;stroke:none"
            d="m 0,0 v -11.714 c 0,-0.61 -0.466,-1.115 -1.072,-1.153 -4.493,-0.265 -21.564,4.406 -21.564,-15.632 v -31.866 c 0,-0.931 -0.754,-1.684 -1.685,-1.684 h -12.42 c -0.931,0 -1.685,0.753 -1.685,1.684 V -1.16 c 0,0.93 0.754,1.684 1.685,1.684 h 11.886 c 0.912,0 1.659,-0.727 1.685,-1.639 l 0.185,-6.72 c 0.567,5.411 5.128,9.519 10.568,9.519 H -1.683 C -0.753,1.684 0,0.93 0,0" />
        </g>
        <g transform="translate(220.8613,104.6045)" id="g32">
          <path id="path34" style="fill:#2f455c;fill-opacity:1;fill-rule:nonzero;stroke:none"
            d="m 0,0 c -0.896,0 -1.625,-0.731 -1.625,-1.628 v -46.433 c 0,-0.897 -0.728,-1.626 -1.629,-1.626 h -12.534 c -0.901,0 -1.628,0.729 -1.628,1.626 v 46.433 c 0,0.897 -0.73,1.628 -1.628,1.628 h -9.862 c -0.899,0 -1.628,0.729 -1.628,1.627 v 9.632 c 0,0.899 0.729,1.627 1.628,1.627 h 9.862 c 0.898,0 1.628,0.729 1.628,1.628 v 6.334 c 0,0.898 0.727,1.626 1.628,1.626 h 12.534 c 0.901,0 1.629,-0.728 1.629,-1.626 v -6.334 c 0,-0.899 0.729,-1.628 1.625,-1.628 h 10.098 c 0.898,0 1.628,-0.728 1.628,-1.627 V 1.627 C 11.726,0.729 10.996,0 10.098,0 Z" />
        </g>
        <g transform="translate(309.1205,68.5777)" id="g36">
          <path id="path38" style="fill:#2f455c;fill-opacity:1;fill-rule:nonzero;stroke:none"
            d="m 0,0 c 0.718,1.154 2.197,1.598 3.417,0.993 5.224,-2.604 10.471,-3.509 15.901,-3.509 5.803,0 9.753,2.438 9.753,6.269 0,3.831 -4.414,5.921 -10.684,7.546 l -5.222,1.393 c -10.564,2.787 -17.764,6.85 -17.764,16.716 0,12.422 9.753,20.666 24.614,20.666 8.208,0 15.357,-1.506 21.133,-4.667 1.358,-0.744 1.79,-2.493 0.956,-3.794 l -3.836,-5.991 c -0.714,-1.114 -2.144,-1.551 -3.342,-0.988 -4.399,2.062 -9.047,3.017 -13.867,3.017 -5.688,0 -9.635,-2.088 -9.635,-5.689 0,-3.714 3.947,-5.455 9.404,-6.847 l 5.224,-1.51 c 10.68,-2.787 19.156,-7.662 19.156,-18.69 0,-11.842 -10.449,-19.737 -26.123,-19.737 -8.469,0 -16.11,1.929 -21.702,5.871 -1.153,0.814 -1.459,2.401 -0.712,3.6 z" />
        </g>
        <g transform="translate(294.0488,97.8555)" id="g40">
          <path id="path42" style="fill:#2f455c;fill-opacity:1;fill-rule:nonzero;stroke:none"
            d="m 0,0 h -8.445 c -2.029,0 -3.672,-1.643 -3.672,-3.671 v -13.496 c 0,-4.449 -1.657,-8.062 -4.515,-10.407 -1.729,-1.419 -3.91,-2.353 -6.425,-2.735 -0.065,-0.011 -0.126,-0.031 -0.191,-0.042 -0.127,-0.018 -0.26,-0.022 -0.389,-0.037 -0.608,-0.069 -1.243,-0.09 -1.888,-0.092 -0.645,0.002 -1.281,0.023 -1.889,0.092 -0.128,0.015 -0.261,0.019 -0.388,0.037 -0.065,0.011 -0.126,0.031 -0.191,0.042 -2.516,0.382 -4.696,1.316 -6.426,2.735 -2.857,2.345 -4.515,5.958 -4.515,10.407 v 13.496 c 0,2.028 -1.643,3.671 -3.671,3.671 h -8.445 c -2.031,0 -3.674,-1.643 -3.674,-3.671 v -14.308 c 0,-0.825 0.035,-1.634 0.098,-2.429 0.022,-0.265 0.064,-0.519 0.093,-0.781 0.056,-0.522 0.11,-1.046 0.193,-1.555 0.051,-0.307 0.123,-0.604 0.184,-0.906 0.089,-0.448 0.174,-0.897 0.284,-1.333 0.081,-0.317 0.182,-0.621 0.273,-0.932 0.12,-0.405 0.236,-0.812 0.373,-1.205 0.111,-0.317 0.241,-0.623 0.364,-0.932 0.146,-0.369 0.291,-0.739 0.454,-1.097 0.142,-0.314 0.302,-0.618 0.457,-0.923 0.17,-0.334 0.339,-0.668 0.524,-0.991 0.176,-0.31 0.367,-0.611 0.557,-0.911 0.19,-0.299 0.38,-0.598 0.583,-0.888 0.212,-0.303 0.435,-0.597 0.661,-0.889 0.206,-0.266 0.413,-0.53 0.629,-0.787 0.25,-0.295 0.51,-0.583 0.774,-0.866 0.217,-0.232 0.436,-0.46 0.662,-0.683 0.29,-0.288 0.589,-0.567 0.895,-0.839 0.222,-0.198 0.448,-0.392 0.678,-0.582 0.333,-0.275 0.673,-0.544 1.022,-0.803 0.224,-0.167 0.453,-0.328 0.685,-0.487 0.377,-0.261 0.76,-0.516 1.155,-0.759 0.222,-0.136 0.449,-0.266 0.676,-0.397 0.423,-0.242 0.851,-0.48 1.293,-0.703 0.218,-0.11 0.443,-0.213 0.666,-0.318 0.467,-0.22 0.938,-0.436 1.424,-0.634 0.217,-0.088 0.441,-0.167 0.662,-0.251 0.507,-0.193 1.018,-0.382 1.545,-0.55 0.221,-0.07 0.449,-0.131 0.674,-0.197 0.539,-0.16 1.081,-0.316 1.639,-0.45 0.044,-0.01 0.084,-0.025 0.128,-0.036 0.336,-0.079 0.685,-0.139 1.026,-0.209 0.326,-0.067 0.64,-0.149 0.971,-0.207 0.034,-0.006 0.07,-0.008 0.103,-0.013 0.917,-0.158 1.861,-0.276 2.819,-0.371 0.289,-0.028 0.582,-0.051 0.874,-0.074 0.928,-0.071 1.87,-0.118 2.837,-0.124 0.07,0 0.135,-0.009 0.204,-0.009 0.021,0 0.04,0.002 0.06,0.002 0.02,0 0.039,-0.002 0.059,-0.002 0.07,0 0.134,0.009 0.204,0.009 0.968,0.006 1.909,0.053 2.838,0.124 0.293,0.023 0.585,0.046 0.874,0.074 0.958,0.095 1.901,0.213 2.818,0.371 0.033,0.005 0.069,0.007 0.103,0.013 0.333,0.058 0.647,0.14 0.974,0.207 0.341,0.07 0.689,0.131 1.023,0.209 0.045,0.011 0.086,0.026 0.129,0.036 0.558,0.134 1.1,0.29 1.639,0.45 0.224,0.066 0.453,0.127 0.674,0.197 0.527,0.169 1.038,0.357 1.546,0.55 0.22,0.084 0.444,0.163 0.66,0.251 0.487,0.198 0.959,0.414 1.426,0.635 0.223,0.105 0.447,0.207 0.664,0.316 0.442,0.223 0.871,0.462 1.294,0.704 0.227,0.131 0.454,0.261 0.675,0.397 0.396,0.243 0.779,0.498 1.156,0.759 0.231,0.159 0.461,0.32 0.686,0.487 0.348,0.259 0.687,0.527 1.019,0.802 0.231,0.191 0.459,0.385 0.681,0.584 0.306,0.272 0.603,0.55 0.893,0.837 0.226,0.223 0.446,0.452 0.662,0.684 0.265,0.283 0.525,0.571 0.775,0.867 0.216,0.256 0.423,0.519 0.627,0.784 0.227,0.293 0.451,0.588 0.663,0.892 0.202,0.289 0.392,0.587 0.582,0.886 0.191,0.301 0.381,0.601 0.558,0.912 0.185,0.323 0.354,0.657 0.523,0.991 0.157,0.305 0.314,0.609 0.458,0.923 0.163,0.358 0.308,0.728 0.454,1.097 0.124,0.309 0.252,0.615 0.363,0.932 0.138,0.393 0.254,0.8 0.373,1.205 0.092,0.311 0.192,0.615 0.273,0.932 0.111,0.436 0.196,0.885 0.284,1.333 0.061,0.302 0.134,0.599 0.185,0.906 0.083,0.509 0.137,1.033 0.193,1.555 0.028,0.262 0.071,0.516 0.092,0.781 0.064,0.795 0.098,1.604 0.098,2.429 V -3.671 C 3.673,-1.643 2.03,0 0,0" />
        </g>
        <g transform="translate(297.0952,115.8716)" id="g44">
          <path id="path46" style="fill:#21d0b2;fill-opacity:1;fill-rule:nonzero;stroke:none"
            d="m 0,0 c -0.66,0.976 -1.778,1.618 -3.046,1.618 h -8.446 c -1.267,0 -2.384,-0.642 -3.044,-1.618 -0.396,-0.586 -0.627,-1.292 -0.627,-2.053 v -5.499 c 0,-2.028 1.643,-3.671 3.673,-3.671 h 8.446 c 2.027,0 3.671,1.643 3.671,3.671 v 5.499 C 0.627,-1.292 0.396,-0.586 0,0 m -45.651,1.618 h -8.446 c -1.269,0 -2.386,-0.642 -3.046,-1.618 -0.396,-0.586 -0.627,-1.292 -0.627,-2.053 v -5.499 c 0,-2.028 1.643,-3.671 3.671,-3.671 h 8.446 c 2.029,0 3.673,1.643 3.673,3.671 v 5.499 c 0,0.761 -0.231,1.467 -0.627,2.053 -0.66,0.976 -1.777,1.618 -3.044,1.618" />
        </g>
        <g transform="translate(85.7875,17.0088)" id="g48">
          <path id="path50" style="fill:#2f455c;fill-opacity:1;fill-rule:nonzero;stroke:none"
            d="M 0,0 H 2.469 C 3.82,0 4.792,0.199 5.387,0.591 5.984,0.987 6.28,1.593 6.28,2.412 6.28,2.952 6.167,3.413 5.933,3.794 5.703,4.178 5.364,4.471 4.915,4.67 4.468,4.872 3.925,4.972 3.288,4.972 H 0 Z m 0,6.917 h 2.185 c 0.773,0 1.404,0.085 1.888,0.256 0.487,0.171 0.847,0.43 1.087,0.774 0.238,0.347 0.358,0.773 0.358,1.28 0,0.691 -0.213,1.231 -0.643,1.621 -0.427,0.392 -1.03,0.586 -1.803,0.586 l -3.072,0 z m -2.571,6.564 h 6.189 c 1.36,0 2.44,-0.338 3.248,-1.018 C 7.674,11.787 8.078,10.851 8.078,9.659 8.078,9.053 7.97,8.521 7.753,8.061 7.537,7.603 7.236,7.222 6.849,6.917 6.462,6.616 6.013,6.391 5.495,6.246 V 6.132 C 6.155,6.058 6.741,5.862 7.253,5.546 7.765,5.233 8.168,4.804 8.464,4.261 8.76,3.72 8.908,3.072 8.908,2.321 8.908,1.405 8.684,0.62 8.231,-0.034 7.782,-0.686 7.15,-1.183 6.337,-1.53 5.526,-1.875 4.582,-2.048 3.504,-2.048 h -6.075 z" />
        </g>
        <g transform="translate(105.0717,22.0259)" id="g52">
          <path id="path54" style="fill:#2f455c;fill-opacity:1;fill-rule:nonzero;stroke:none"
            d="m 0,0 v 0.074 0.085 c 0,0.609 -0.108,1.138 -0.33,1.588 -0.219,0.452 -0.529,0.801 -0.927,1.052 -0.399,0.25 -0.865,0.375 -1.406,0.375 -0.537,0 -1.006,-0.125 -1.41,-0.375 -0.401,-0.251 -0.711,-0.6 -0.933,-1.052 -0.219,-0.45 -0.33,-0.979 -0.33,-1.588 V 0.074 0 Z m -5.347,-6.627 c -0.797,0.429 -1.411,1.046 -1.843,1.855 -0.433,0.807 -0.649,1.777 -0.649,2.906 v 1.627 c 0,1.138 0.228,2.111 0.683,2.913 0.455,0.805 1.072,1.422 1.848,1.848 0.78,0.43 1.656,0.643 2.634,0.643 1.01,0 1.9,-0.222 2.668,-0.665 C 0.765,4.056 1.371,3.433 1.809,2.628 2.25,1.826 2.469,0.871 2.469,-0.239 v -1.41 h -7.805 v -0.592 c 0,-0.856 0.245,-1.57 0.734,-2.145 0.489,-0.572 1.177,-0.859 2.065,-0.859 0.441,0 0.83,0.063 1.172,0.188 0.341,0.125 0.617,0.293 0.824,0.5 0.211,0.211 0.345,0.439 0.404,0.689 H 2.332 C 2.295,-4.215 2.173,-4.588 1.962,-4.983 1.755,-5.375 1.456,-5.745 1.063,-6.092 0.674,-6.437 0.182,-6.718 -0.416,-6.94 c -0.594,-0.219 -1.296,-0.33 -2.11,-0.33 -1.083,0 -2.025,0.216 -2.821,0.643" />
        </g>
        <g transform="translate(117.5863,19.0454)" id="g56">
          <path id="path58" style="fill:#2f455c;fill-opacity:1;fill-rule:nonzero;stroke:none"
            d="m 0,0 c 0.062,-0.333 0.185,-0.637 0.37,-0.916 0.187,-0.276 0.429,-0.515 0.728,-0.717 0.301,-0.199 0.648,-0.355 1.047,-0.466 0.397,-0.109 0.835,-0.165 1.313,-0.165 0.683,0 1.263,0.102 1.741,0.301 0.478,0.202 0.845,0.484 1.098,0.842 0.256,0.361 0.381,0.785 0.381,1.268 0,0.586 -0.199,1.05 -0.603,1.395 C 5.674,1.888 5.051,2.162 4.209,2.366 L 1.661,3.003 c -0.788,0.191 -1.468,0.473 -2.036,0.842 -0.569,0.373 -1.005,0.839 -1.309,1.4 -0.301,0.563 -0.455,1.211 -0.455,1.945 0,0.91 0.242,1.712 0.722,2.4 0.484,0.692 1.144,1.229 1.986,1.616 0.842,0.387 1.808,0.58 2.901,0.58 1.109,0 2.065,-0.184 2.872,-0.557 C 7.15,10.859 7.787,10.353 8.254,9.716 8.72,9.079 8.985,8.362 9.044,7.565 H 6.542 C 6.459,7.983 6.283,8.351 6.013,8.664 5.745,8.979 5.393,9.227 4.96,9.403 4.528,9.582 4.024,9.67 3.447,9.67 2.537,9.67 1.812,9.454 1.269,9.021 0.728,8.589 0.455,8.029 0.455,7.338 0.455,6.832 0.643,6.408 1.012,6.069 1.385,5.734 1.917,5.48 2.605,5.313 L 5.142,4.687 C 6.015,4.477 6.758,4.187 7.372,3.822 7.986,3.458 8.456,2.998 8.777,2.435 9.102,1.874 9.261,1.188 9.261,0.375 9.261,-0.581 9.022,-1.417 8.544,-2.133 8.066,-2.85 7.38,-3.405 6.485,-3.8 5.592,-4.193 4.517,-4.392 3.265,-4.392 c -0.902,0 -1.701,0.111 -2.401,0.33 -0.697,0.222 -1.291,0.529 -1.786,0.927 -0.492,0.399 -0.873,0.865 -1.143,1.4 C -2.333,-1.201 -2.492,-0.62 -2.537,0 Z" />
        </g>
        <g transform="translate(140.1694,14.961)" id="g60">
          <path id="path62" style="fill:#2f455c;fill-opacity:1;fill-rule:nonzero;stroke:none"
            d="M 0,0 H -2.48 V 2.002 H -2.617 C -2.722,1.678 -2.921,1.348 -3.214,1.013 -3.504,0.68 -3.894,0.398 -4.38,0.165 c -0.484,-0.23 -1.081,-0.347 -1.786,-0.347 -0.802,0 -1.511,0.137 -2.122,0.404 -0.608,0.27 -1.087,0.694 -1.434,1.274 -0.344,0.58 -0.517,1.342 -0.517,2.281 v 8.248 h 2.526 V 4.437 c 0,-0.637 0.113,-1.135 0.335,-1.496 0.225,-0.358 0.518,-0.614 0.876,-0.762 0.361,-0.148 0.754,-0.222 1.178,-0.222 0.532,0 1.007,0.119 1.428,0.353 0.42,0.235 0.756,0.554 1,0.955 0.248,0.404 0.371,0.853 0.371,1.354 v 7.406 H 0 Z" />
        </g>
        <g transform="translate(144.1288,26.9864)" id="g64">
          <path id="path66" style="fill:#2f455c;fill-opacity:1;fill-rule:nonzero;stroke:none"
            d="M 0,0 H 2.514 V -1.877 H 2.65 c 0.092,0.273 0.257,0.568 0.496,0.881 0.238,0.316 0.574,0.589 1.006,0.82 C 4.584,0.057 5.136,0.17 5.802,0.17 5.97,0.17 6.124,0.165 6.263,0.154 6.405,0.142 6.536,0.125 6.655,0.103 v -2.23 C 6.542,-2.096 6.388,-2.073 6.189,-2.059 5.993,-2.042 5.788,-2.037 5.575,-2.037 4.9,-2.037 4.34,-2.159 3.891,-2.406 3.444,-2.651 3.111,-2.989 2.89,-3.419 2.67,-3.845 2.56,-4.329 2.56,-4.869 v -7.156 H 0 Z" />
        </g>
        <g transform="translate(160.5571,22.0259)" id="g68">
          <path id="path70" style="fill:#2f455c;fill-opacity:1;fill-rule:nonzero;stroke:none"
            d="M 0,0 V 0.074 0.159 C 0,0.768 -0.108,1.297 -0.33,1.747 -0.549,2.199 -0.859,2.548 -1.257,2.799 -1.655,3.049 -2.122,3.174 -2.662,3.174 -3.2,3.174 -3.669,3.049 -4.073,2.799 -4.474,2.548 -4.784,2.199 -5.006,1.747 -5.225,1.297 -5.336,0.768 -5.336,0.159 V 0.074 0 Z m -5.347,-6.627 c -0.797,0.429 -1.411,1.046 -1.843,1.855 -0.433,0.807 -0.649,1.777 -0.649,2.906 v 1.627 c 0,1.138 0.228,2.111 0.683,2.913 0.455,0.805 1.072,1.422 1.848,1.848 0.78,0.43 1.656,0.643 2.634,0.643 1.01,0 1.9,-0.222 2.668,-0.665 C 0.765,4.056 1.371,3.433 1.809,2.628 2.25,1.826 2.469,0.871 2.469,-0.239 v -1.41 h -7.805 v -0.592 c 0,-0.856 0.245,-1.57 0.734,-2.145 0.489,-0.572 1.177,-0.859 2.065,-0.859 0.441,0 0.83,0.063 1.172,0.188 0.341,0.125 0.617,0.293 0.824,0.5 0.211,0.211 0.345,0.439 0.404,0.689 H 2.332 C 2.295,-4.215 2.173,-4.588 1.962,-4.983 1.755,-5.375 1.456,-5.745 1.063,-6.092 0.674,-6.437 0.182,-6.718 -0.416,-6.94 c -0.594,-0.219 -1.296,-0.33 -2.11,-0.33 -1.083,0 -2.025,0.216 -2.821,0.643" />
        </g>
        <g transform="translate(166.4955,17.8052)" id="g72">
          <path id="path74" style="fill:#2f455c;fill-opacity:1;fill-rule:nonzero;stroke:none"
            d="M 0,0 C 0.35,0.335 0.774,0.5 1.274,0.5 1.792,0.5 2.225,0.335 2.577,0 2.93,-0.333 3.106,-0.765 3.106,-1.297 3.106,-1.812 2.93,-2.236 2.577,-2.565 2.225,-2.896 1.792,-3.061 1.274,-3.061 c -0.5,0 -0.924,0.165 -1.274,0.496 -0.347,0.329 -0.523,0.753 -0.523,1.268 0,0.532 0.176,0.964 0.523,1.297" />
        </g>
        <g transform="translate(181.1039,17.0088)" id="g76">
          <path id="path78" style="fill:#2f455c;fill-opacity:1;fill-rule:nonzero;stroke:none"
            d="M 0,0 H 2.469 C 3.82,0 4.792,0.199 5.387,0.591 5.984,0.987 6.28,1.593 6.28,2.412 6.28,2.952 6.166,3.413 5.933,3.794 5.703,4.178 5.364,4.471 4.915,4.67 4.468,4.872 3.925,4.972 3.288,4.972 H 0 Z m 0,6.917 h 2.184 c 0.774,0 1.405,0.085 1.889,0.256 0.486,0.171 0.847,0.43 1.086,0.774 0.239,0.347 0.359,0.773 0.359,1.28 0,0.691 -0.214,1.231 -0.643,1.621 -0.427,0.392 -1.03,0.586 -1.803,0.586 l -3.072,0 z m -2.571,6.564 h 6.189 c 1.359,0 2.44,-0.338 3.248,-1.018 C 7.673,11.787 8.078,10.851 8.078,9.659 8.078,9.053 7.969,8.521 7.753,8.061 7.537,7.603 7.235,7.222 6.849,6.917 6.462,6.616 6.013,6.391 5.495,6.246 V 6.132 C 6.155,6.058 6.741,5.862 7.252,5.546 7.765,5.233 8.168,4.804 8.464,4.261 8.76,3.72 8.908,3.072 8.908,2.321 8.908,1.405 8.683,0.62 8.231,-0.034 7.782,-0.686 7.15,-1.183 6.337,-1.53 5.526,-1.875 4.582,-2.048 3.504,-2.048 h -6.075 z" />
        </g>
        <g transform="translate(200.3876,22.0259)" id="g80">
          <path id="path82" style="fill:#2f455c;fill-opacity:1;fill-rule:nonzero;stroke:none"
            d="M 0,0 V 0.074 0.159 C 0,0.768 -0.108,1.297 -0.33,1.747 -0.549,2.199 -0.859,2.548 -1.257,2.799 -1.655,3.049 -2.122,3.174 -2.662,3.174 -3.2,3.174 -3.669,3.049 -4.073,2.799 -4.474,2.548 -4.784,2.199 -5.006,1.747 -5.225,1.297 -5.336,0.768 -5.336,0.159 V 0.074 0 Z m -5.347,-6.627 c -0.797,0.429 -1.411,1.046 -1.843,1.855 -0.433,0.807 -0.649,1.777 -0.649,2.906 v 1.627 c 0,1.138 0.228,2.111 0.683,2.913 0.455,0.805 1.072,1.422 1.849,1.848 0.779,0.43 1.655,0.643 2.634,0.643 1.009,0 1.9,-0.222 2.667,-0.665 C 0.765,4.056 1.371,3.433 1.809,2.628 2.25,1.826 2.469,0.871 2.469,-0.239 v -1.41 h -7.805 v -0.592 c 0,-0.856 0.245,-1.57 0.734,-2.145 0.489,-0.572 1.178,-0.859 2.065,-0.859 0.441,0 0.83,0.063 1.172,0.188 0.341,0.125 0.617,0.293 0.824,0.5 0.211,0.211 0.345,0.439 0.405,0.689 H 2.333 C 2.295,-4.215 2.173,-4.588 1.962,-4.983 1.755,-5.375 1.457,-5.745 1.064,-6.092 0.674,-6.437 0.182,-6.718 -0.415,-6.94 c -0.595,-0.219 -1.297,-0.33 -2.11,-0.33 -1.084,0 -2.026,0.216 -2.822,0.643" />
        </g>
        <g transform="translate(212.9023,19.0454)" id="g84">
          <path id="path86" style="fill:#2f455c;fill-opacity:1;fill-rule:nonzero;stroke:none"
            d="m 0,0 c 0.062,-0.333 0.185,-0.637 0.37,-0.916 0.188,-0.276 0.429,-0.515 0.728,-0.717 0.301,-0.199 0.649,-0.355 1.047,-0.466 0.398,-0.109 0.836,-0.165 1.313,-0.165 0.683,0 1.264,0.102 1.741,0.301 0.478,0.202 0.845,0.484 1.098,0.842 0.256,0.361 0.381,0.785 0.381,1.268 0,0.586 -0.199,1.05 -0.603,1.395 C 5.674,1.888 5.051,2.162 4.209,2.366 L 1.661,3.003 c -0.788,0.191 -1.468,0.473 -2.036,0.842 -0.569,0.373 -1.004,0.839 -1.309,1.4 -0.301,0.563 -0.455,1.211 -0.455,1.945 0,0.91 0.242,1.712 0.722,2.4 0.484,0.692 1.144,1.229 1.986,1.616 0.842,0.387 1.809,0.58 2.901,0.58 1.109,0 2.065,-0.184 2.873,-0.557 C 7.15,10.859 7.788,10.353 8.254,9.716 8.721,9.079 8.985,8.362 9.045,7.565 H 6.542 C 6.459,7.983 6.283,8.351 6.013,8.664 5.746,8.979 5.393,9.227 4.96,9.403 4.528,9.582 4.025,9.67 3.447,9.67 2.537,9.67 1.812,9.454 1.269,9.021 0.728,8.589 0.455,8.029 0.455,7.338 0.455,6.832 0.643,6.408 1.013,6.069 1.385,5.734 1.917,5.48 2.605,5.313 L 5.143,4.687 C 6.016,4.477 6.758,4.187 7.373,3.822 7.987,3.458 8.456,2.998 8.777,2.435 9.102,1.874 9.261,1.188 9.261,0.375 9.261,-0.581 9.022,-1.417 8.544,-2.133 8.066,-2.85 7.381,-3.405 6.485,-3.8 5.592,-4.193 4.517,-4.392 3.265,-4.392 c -0.901,0 -1.701,0.111 -2.4,0.33 -0.697,0.222 -1.292,0.529 -1.786,0.927 -0.493,0.399 -0.873,0.865 -1.144,1.4 C -2.332,-1.201 -2.492,-0.62 -2.537,0 Z" />
        </g>
        <g transform="translate(232.5956,22.0259)" id="g88">
          <path id="path90" style="fill:#2f455c;fill-opacity:1;fill-rule:nonzero;stroke:none"
            d="M 0,0 V 0.074 0.159 C 0,0.768 -0.108,1.297 -0.33,1.747 -0.549,2.199 -0.859,2.548 -1.257,2.799 -1.655,3.049 -2.122,3.174 -2.662,3.174 -3.2,3.174 -3.669,3.049 -4.073,2.799 -4.474,2.548 -4.784,2.199 -5.006,1.747 -5.225,1.297 -5.335,0.768 -5.335,0.159 V 0.074 0 Z m -5.347,-6.627 c -0.797,0.429 -1.411,1.046 -1.843,1.855 -0.433,0.807 -0.648,1.777 -0.648,2.906 v 1.627 c 0,1.138 0.227,2.111 0.682,2.913 0.455,0.805 1.073,1.422 1.849,1.848 0.779,0.43 1.655,0.643 2.634,0.643 1.009,0 1.9,-0.222 2.668,-0.665 C 0.765,4.056 1.371,3.433 1.809,2.628 2.25,1.826 2.469,0.871 2.469,-0.239 v -1.41 h -7.804 v -0.592 c 0,-0.856 0.244,-1.57 0.733,-2.145 0.489,-0.572 1.178,-0.859 2.065,-0.859 0.441,0 0.83,0.063 1.172,0.188 0.341,0.125 0.617,0.293 0.825,0.5 0.21,0.211 0.344,0.439 0.404,0.689 H 2.333 C 2.295,-4.215 2.173,-4.588 1.963,-4.983 1.755,-5.375 1.457,-5.745 1.064,-6.092 0.674,-6.437 0.182,-6.718 -0.415,-6.94 c -0.594,-0.219 -1.297,-0.33 -2.11,-0.33 -1.084,0 -2.026,0.216 -2.822,0.643" />
        </g>
        <g transform="translate(237.6816,21.878)" id="g92">
          <path id="path94" style="fill:#2f455c;fill-opacity:1;fill-rule:nonzero;stroke:none"
            d="m 0,0 c 0,1.078 0.213,2.014 0.637,2.805 0.426,0.793 1.027,1.41 1.803,1.848 0.779,0.441 1.695,0.66 2.747,0.66 1.033,0 1.9,-0.185 2.6,-0.557 C 8.49,4.386 9.027,3.902 9.397,3.305 9.77,2.71 9.963,2.068 9.978,1.377 H 7.588 C 7.551,1.636 7.455,1.906 7.298,2.19 7.145,2.475 6.903,2.716 6.576,2.913 6.251,3.112 5.808,3.208 5.245,3.208 4.366,3.208 3.694,2.913 3.231,2.321 2.77,1.729 2.537,0.938 2.537,-0.057 v -1.684 c 0,-1.007 0.242,-1.808 0.722,-2.4 0.484,-0.592 1.149,-0.887 1.997,-0.887 0.54,0 0.973,0.076 1.303,0.227 0.33,0.154 0.58,0.359 0.751,0.62 0.17,0.262 0.287,0.552 0.346,0.87 h 2.389 C 10.023,-3.985 9.833,-4.613 9.471,-5.193 9.113,-5.774 8.578,-6.24 7.867,-6.593 7.159,-6.945 6.266,-7.122 5.187,-7.122 c -1.069,0 -1.99,0.219 -2.764,0.654 C 1.649,-6.03 1.052,-5.41 0.631,-4.607 0.21,-3.803 0,-2.847 0,-1.741 Z" />
        </g>
        <g transform="translate(260.936,14.961)" id="g96">
          <path id="path98" style="fill:#2f455c;fill-opacity:1;fill-rule:nonzero;stroke:none"
            d="M 0,0 H -2.48 V 2.002 H -2.617 C -2.722,1.678 -2.921,1.348 -3.214,1.013 -3.504,0.68 -3.894,0.398 -4.38,0.165 c -0.484,-0.23 -1.081,-0.347 -1.787,-0.347 -0.801,0 -1.51,0.137 -2.121,0.404 -0.609,0.27 -1.087,0.694 -1.434,1.274 -0.344,0.58 -0.517,1.342 -0.517,2.281 v 8.248 h 2.525 V 4.437 c 0,-0.637 0.114,-1.135 0.336,-1.496 0.225,-0.358 0.518,-0.614 0.876,-0.762 0.361,-0.148 0.753,-0.222 1.177,-0.222 0.533,0 1.007,0.119 1.429,0.353 0.42,0.235 0.756,0.554 1,0.955 0.248,0.404 0.37,0.853 0.37,1.354 v 7.406 H 0 Z" />
        </g>
        <g transform="translate(264.895,26.9864)" id="g100">
          <path id="path102" style="fill:#2f455c;fill-opacity:1;fill-rule:nonzero;stroke:none"
            d="m 0,0 h 2.515 v -1.877 h 0.136 c 0.091,0.273 0.256,0.568 0.495,0.881 0.239,0.316 0.574,0.589 1.007,0.82 C 4.585,0.057 5.137,0.17 5.802,0.17 5.97,0.17 6.124,0.165 6.263,0.154 6.405,0.142 6.536,0.125 6.656,0.103 v -2.23 C 6.542,-2.096 6.388,-2.073 6.189,-2.059 5.993,-2.042 5.788,-2.037 5.575,-2.037 4.901,-2.037 4.34,-2.159 3.891,-2.406 3.444,-2.651 3.112,-2.989 2.89,-3.419 2.671,-3.845 2.56,-4.329 2.56,-4.869 v -7.156 H 0 Z" />
        </g>
        <g transform="translate(281.3232,22.0259)" id="g104">
          <path id="path106" style="fill:#2f455c;fill-opacity:1;fill-rule:nonzero;stroke:none"
            d="M 0,0 V 0.074 0.159 C 0,0.768 -0.108,1.297 -0.33,1.747 -0.549,2.199 -0.859,2.548 -1.257,2.799 -1.655,3.049 -2.122,3.174 -2.662,3.174 -3.2,3.174 -3.669,3.049 -4.073,2.799 -4.474,2.548 -4.784,2.199 -5.006,1.747 -5.225,1.297 -5.335,0.768 -5.335,0.159 V 0.074 0 Z m -5.347,-6.627 c -0.797,0.429 -1.411,1.046 -1.843,1.855 -0.433,0.807 -0.648,1.777 -0.648,2.906 v 1.627 c 0,1.138 0.227,2.111 0.682,2.913 0.455,0.805 1.073,1.422 1.849,1.848 0.779,0.43 1.655,0.643 2.634,0.643 1.009,0 1.9,-0.222 2.668,-0.665 C 0.765,4.056 1.371,3.433 1.809,2.628 2.25,1.826 2.469,0.871 2.469,-0.239 v -1.41 h -7.804 v -0.592 c 0,-0.856 0.244,-1.57 0.733,-2.145 0.489,-0.572 1.178,-0.859 2.065,-0.859 0.441,0 0.83,0.063 1.172,0.188 0.341,0.125 0.617,0.293 0.825,0.5 0.21,0.211 0.344,0.439 0.404,0.689 H 2.333 C 2.295,-4.215 2.173,-4.588 1.963,-4.983 1.755,-5.375 1.457,-5.745 1.064,-6.092 0.674,-6.437 0.182,-6.718 -0.415,-6.94 c -0.594,-0.219 -1.297,-0.33 -2.11,-0.33 -1.084,0 -2.026,0.216 -2.822,0.643" />
        </g>
        <g transform="translate(287.2621,17.8052)" id="g108">
          <path id="path110" style="fill:#2f455c;fill-opacity:1;fill-rule:nonzero;stroke:none"
            d="M 0,0 C 0.35,0.335 0.773,0.5 1.274,0.5 1.792,0.5 2.224,0.335 2.577,0 2.93,-0.333 3.106,-0.765 3.106,-1.297 3.106,-1.812 2.93,-2.236 2.577,-2.565 2.224,-2.896 1.792,-3.061 1.274,-3.061 0.773,-3.061 0.35,-2.896 0,-2.565 c -0.347,0.329 -0.523,0.753 -0.523,1.268 0,0.532 0.176,0.964 0.523,1.297" />
        </g>
      </g>
    </g>
  </g>
</svg>