<?xml version="1.0" encoding="UTF-8"?>
<svg xmlns="http://www.w3.org/2000/svg" xmlns:xlink="http://www.w3.org/1999/xlink" width="340.15pt" height="73.33pt" viewBox="0 0 340.15 73.33" version="1.1">
<defs>
<clipPath id="clip1">
  <path d="M 0 8 L 55 8 L 55 73.328125 L 0 73.328125 Z M 0 8 "/>
</clipPath>
<clipPath id="clip2">
  <path d="M 61 8 L 125 8 L 125 73.328125 L 61 73.328125 Z M 61 8 "/>
</clipPath>
<clipPath id="clip3">
  <path d="M 290 8 L 340.148438 8 L 340.148438 73.328125 L 290 73.328125 Z M 290 8 "/>
</clipPath>
<clipPath id="clip4">
  <path d="M 225 29 L 284 29 L 284 73.328125 L 225 73.328125 Z M 225 29 "/>
</clipPath>
</defs>
<g id="surface1">
<g clip-path="url(#clip1)" clip-rule="nonzero">
<path style=" stroke:none;fill-rule:nonzero;fill:rgb(11.399841%,11.399841%,10.598755%);fill-opacity:1;" d="M 16.371094 40.820313 C 16.371094 51.90625 23.214844 59.335938 33.554688 59.707031 L 51.789063 59.738281 C 53.535156 59.742188 54.949219 61.15625 54.949219 62.902344 L 54.949219 70.066406 C 54.949219 71.804688 53.546875 73.21875 51.808594 73.226563 C 45.996094 73.257813 34.109375 73.328125 33.554688 73.328125 C 13.46875 73.328125 0 60.324219 0 40.820313 C 0 21.433594 13.46875 8.429688 33.554688 8.429688 L 51.785156 8.429688 C 53.53125 8.429688 54.949219 9.847656 54.949219 11.59375 L 54.949219 18.742188 C 54.949219 20.484375 53.535156 21.898438 51.789063 21.902344 L 33.554688 21.933594 C 23.214844 22.308594 16.371094 29.734375 16.371094 40.820313 "/>
</g>
<g clip-path="url(#clip2)" clip-rule="nonzero">
<path style=" stroke:none;fill-rule:nonzero;fill:rgb(11.399841%,11.399841%,10.598755%);fill-opacity:1;" d="M 104.914063 35.828125 C 106.316406 35.828125 107.394531 34.53125 107.09375 33.160156 C 105.375 25.296875 100.5625 20.851563 92.917969 20.851563 C 85.386719 20.851563 80.683594 25.277344 78.890625 33.113281 C 78.574219 34.496094 79.648438 35.828125 81.070313 35.828125 Z M 123.898438 44.515625 C 123.789063 45.648438 122.828125 46.511719 121.691406 46.511719 L 81.070313 46.511719 C 79.648438 46.511719 78.570313 47.839844 78.894531 49.222656 C 80.605469 56.457031 85.1875 60.90625 93.382813 60.90625 C 99.757813 60.90625 104.976563 58.007813 108.691406 53.488281 L 108.683594 53.484375 L 108.695313 53.484375 C 108.699219 53.480469 108.703125 53.476563 108.703125 53.476563 L 108.722656 53.484375 L 120.007813 53.484375 C 121.519531 53.484375 122.625 54.976563 122.128906 56.402344 C 115.972656 73.996094 93.613281 73.328125 93.613281 73.328125 C 74.457031 73.328125 61.6875 60.558594 61.6875 41.285156 C 61.6875 21.550781 74.109375 8.433594 92.917969 8.433594 C 111.609375 8.433594 124.144531 20.96875 124.144531 39.890625 C 124.144531 41.382813 124.039063 43.027344 123.898438 44.515625 "/>
</g>
<path style=" stroke:none;fill-rule:nonzero;fill:rgb(11.399841%,11.399841%,10.598755%);fill-opacity:1;" d="M 169.359375 10.117188 L 169.359375 21.828125 C 169.359375 22.441406 168.894531 22.945313 168.285156 22.984375 C 163.792969 23.246094 146.722656 18.578125 146.722656 38.613281 L 146.722656 70.480469 C 146.722656 71.410156 145.96875 72.164063 145.039063 72.164063 L 132.617188 72.164063 C 131.6875 72.164063 130.933594 71.410156 130.933594 70.480469 L 130.933594 11.277344 C 130.933594 10.347656 131.6875 9.589844 132.617188 9.589844 L 144.503906 9.589844 C 145.414063 9.589844 146.164063 10.320313 146.1875 11.230469 L 146.371094 17.949219 C 146.941406 12.539063 151.503906 8.429688 156.941406 8.429688 L 167.675781 8.429688 C 168.605469 8.429688 169.359375 9.183594 169.359375 10.117188 "/>
<path style=" stroke:none;fill-rule:nonzero;fill:rgb(11.399841%,11.399841%,10.598755%);fill-opacity:1;" d="M 206.6875 22.476563 C 205.789063 22.476563 205.0625 23.207031 205.0625 24.105469 L 205.0625 70.539063 C 205.0625 71.4375 204.332031 72.164063 203.433594 72.164063 L 190.898438 72.164063 C 189.996094 72.164063 189.269531 71.4375 189.269531 70.539063 L 189.269531 24.105469 C 189.269531 23.207031 188.539063 22.476563 187.640625 22.476563 L 177.78125 22.476563 C 176.882813 22.476563 176.152344 21.75 176.152344 20.851563 L 176.152344 11.21875 C 176.152344 10.320313 176.882813 9.589844 177.78125 9.589844 L 187.640625 9.589844 C 188.539063 9.589844 189.269531 8.863281 189.269531 7.964844 L 189.269531 1.628906 C 189.269531 0.730469 189.996094 0.00390625 190.898438 0.00390625 L 203.433594 0.00390625 C 204.332031 0.00390625 205.0625 0.730469 205.0625 1.628906 L 205.0625 7.964844 C 205.0625 8.863281 205.789063 9.589844 206.6875 9.589844 L 216.785156 9.589844 C 217.683594 9.589844 218.410156 10.320313 218.410156 11.21875 L 218.410156 20.851563 C 218.410156 21.75 217.683594 22.476563 216.785156 22.476563 "/>
<g clip-path="url(#clip3)" clip-rule="nonzero">
<path style=" stroke:none;fill-rule:nonzero;fill:rgb(11.399841%,11.399841%,10.598755%);fill-opacity:1;" d="M 294.945313 58.503906 C 295.664063 57.351563 297.144531 56.90625 298.363281 57.511719 C 303.585938 60.117188 308.835938 61.019531 314.261719 61.019531 C 320.066406 61.019531 324.015625 58.582031 324.015625 54.75 C 324.015625 50.921875 319.601563 48.832031 313.332031 47.207031 L 308.109375 45.8125 C 297.546875 43.027344 290.347656 38.960938 290.347656 29.097656 C 290.347656 16.675781 300.097656 8.429688 314.960938 8.429688 C 323.167969 8.429688 330.316406 9.9375 336.09375 13.097656 C 337.453125 13.839844 337.882813 15.589844 337.050781 16.890625 L 333.214844 22.882813 C 332.5 23.996094 331.070313 24.433594 329.871094 23.871094 C 325.472656 21.808594 320.824219 20.855469 316.003906 20.855469 C 310.316406 20.855469 306.371094 22.941406 306.371094 26.542969 C 306.371094 30.257813 310.316406 31.996094 315.773438 33.390625 L 320.996094 34.898438 C 331.675781 37.6875 340.152344 42.5625 340.152344 53.589844 C 340.152344 65.433594 329.703125 73.328125 314.03125 73.328125 C 305.5625 73.328125 297.921875 71.398438 292.328125 67.457031 C 291.175781 66.640625 290.871094 65.054688 291.617188 63.855469 "/>
</g>
<g clip-path="url(#clip4)" clip-rule="nonzero">
<path style=" stroke:none;fill-rule:nonzero;fill:rgb(11.399841%,11.399841%,10.598755%);fill-opacity:1;" d="M 279.875 29.226563 L 271.429688 29.226563 C 269.398438 29.226563 267.757813 30.871094 267.757813 32.898438 L 267.757813 46.394531 C 267.757813 50.84375 266.101563 54.457031 263.242188 56.800781 C 261.511719 58.21875 259.332031 59.152344 256.816406 59.535156 C 256.753906 59.546875 256.691406 59.566406 256.625 59.578125 C 256.5 59.597656 256.367188 59.601563 256.238281 59.613281 C 255.628906 59.683594 254.992188 59.703125 254.347656 59.707031 C 253.703125 59.703125 253.066406 59.683594 252.460938 59.613281 C 252.332031 59.601563 252.199219 59.597656 252.070313 59.578125 C 252.007813 59.566406 251.945313 59.546875 251.882813 59.535156 C 249.363281 59.152344 247.183594 58.21875 245.453125 56.800781 C 242.597656 54.457031 240.941406 50.84375 240.941406 46.394531 L 240.941406 32.898438 C 240.941406 30.871094 239.296875 29.226563 237.269531 29.226563 L 228.824219 29.226563 C 226.792969 29.226563 225.148438 30.871094 225.148438 32.898438 L 225.148438 47.207031 C 225.148438 48.03125 225.183594 48.839844 225.246094 49.636719 C 225.269531 49.898438 225.3125 50.152344 225.339844 50.414063 C 225.398438 50.9375 225.449219 51.460938 225.535156 51.972656 C 225.585938 52.277344 225.65625 52.574219 225.71875 52.875 C 225.808594 53.324219 225.890625 53.773438 226.003906 54.210938 C 226.082031 54.527344 226.183594 54.832031 226.273438 55.140625 C 226.394531 55.546875 226.511719 55.953125 226.648438 56.347656 C 226.757813 56.664063 226.890625 56.96875 227.011719 57.277344 C 227.15625 57.648438 227.304688 58.019531 227.464844 58.375 C 227.609375 58.691406 227.769531 58.992188 227.921875 59.296875 C 228.09375 59.632813 228.261719 59.964844 228.445313 60.289063 C 228.621094 60.601563 228.8125 60.902344 229.003906 61.199219 C 229.195313 61.5 229.382813 61.796875 229.585938 62.089844 C 229.800781 62.394531 230.023438 62.6875 230.246094 62.976563 C 230.453125 63.242188 230.660156 63.507813 230.878906 63.765625 C 231.128906 64.058594 231.386719 64.347656 231.652344 64.628906 C 231.867188 64.863281 232.085938 65.089844 232.3125 65.316406 C 232.601563 65.601563 232.902344 65.878906 233.207031 66.152344 C 233.429688 66.351563 233.65625 66.542969 233.886719 66.734375 C 234.21875 67.011719 234.558594 67.277344 234.90625 67.539063 C 235.132813 67.703125 235.359375 67.867188 235.59375 68.023438 C 235.96875 68.285156 236.351563 68.539063 236.746094 68.785156 C 236.96875 68.917969 237.195313 69.050781 237.425781 69.179688 C 237.847656 69.421875 238.273438 69.660156 238.71875 69.882813 C 238.933594 69.996094 239.160156 70.097656 239.382813 70.203125 C 239.851563 70.421875 240.320313 70.636719 240.808594 70.835938 C 241.023438 70.921875 241.246094 71.003906 241.46875 71.085938 C 241.976563 71.28125 242.488281 71.46875 243.015625 71.636719 C 243.234375 71.707031 243.464844 71.769531 243.6875 71.832031 C 244.226563 71.992188 244.769531 72.148438 245.328125 72.285156 C 245.371094 72.292969 245.410156 72.308594 245.453125 72.320313 C 245.789063 72.398438 246.140625 72.457031 246.480469 72.527344 C 246.808594 72.597656 247.121094 72.679688 247.453125 72.734375 C 247.484375 72.742188 247.523438 72.742188 247.554688 72.75 C 248.472656 72.90625 249.414063 73.023438 250.375 73.121094 C 250.664063 73.148438 250.957031 73.171875 251.246094 73.195313 C 252.175781 73.265625 253.117188 73.3125 254.085938 73.316406 C 254.15625 73.316406 254.21875 73.328125 254.289063 73.328125 C 254.308594 73.328125 254.328125 73.324219 254.347656 73.324219 C 254.367188 73.324219 254.386719 73.328125 254.40625 73.328125 C 254.476563 73.328125 254.542969 73.316406 254.613281 73.316406 C 255.578125 73.3125 256.519531 73.265625 257.449219 73.195313 C 257.742188 73.171875 258.035156 73.148438 258.324219 73.121094 C 259.28125 73.023438 260.226563 72.90625 261.140625 72.75 C 261.175781 72.742188 261.210938 72.742188 261.246094 72.734375 C 261.578125 72.679688 261.890625 72.597656 262.21875 72.527344 C 262.558594 72.457031 262.90625 72.398438 263.242188 72.320313 C 263.285156 72.308594 263.328125 72.292969 263.371094 72.285156 C 263.929688 72.148438 264.472656 71.992188 265.011719 71.832031 C 265.234375 71.769531 265.464844 71.707031 265.683594 71.636719 C 266.210938 71.46875 266.722656 71.28125 267.230469 71.085938 C 267.449219 71.003906 267.675781 70.921875 267.890625 70.835938 C 268.378906 70.636719 268.847656 70.421875 269.316406 70.203125 C 269.539063 70.097656 269.761719 69.996094 269.980469 69.886719 C 270.421875 69.660156 270.851563 69.421875 271.273438 69.179688 C 271.5 69.050781 271.726563 68.917969 271.949219 68.785156 C 272.34375 68.539063 272.726563 68.285156 273.105469 68.023438 C 273.335938 67.867188 273.566406 67.703125 273.789063 67.539063 C 274.140625 67.277344 274.476563 67.011719 274.808594 66.734375 C 275.039063 66.542969 275.269531 66.351563 275.492188 66.152344 C 275.796875 65.878906 276.09375 65.601563 276.382813 65.316406 C 276.609375 65.089844 276.828125 64.863281 277.046875 64.628906 C 277.3125 64.347656 277.570313 64.058594 277.820313 63.765625 C 278.035156 63.507813 278.242188 63.246094 278.449219 62.980469 C 278.675781 62.6875 278.898438 62.390625 279.109375 62.085938 C 279.3125 61.796875 279.503906 61.5 279.691406 61.203125 C 279.882813 60.902344 280.074219 60.601563 280.25 60.289063 C 280.4375 59.964844 280.605469 59.632813 280.773438 59.296875 C 280.929688 58.992188 281.089844 58.691406 281.230469 58.375 C 281.394531 58.019531 281.539063 57.648438 281.6875 57.277344 C 281.808594 56.96875 281.9375 56.664063 282.050781 56.347656 C 282.1875 55.953125 282.304688 55.546875 282.421875 55.140625 C 282.515625 54.832031 282.613281 54.527344 282.695313 54.210938 C 282.804688 53.773438 282.890625 53.324219 282.980469 52.875 C 283.039063 52.574219 283.113281 52.277344 283.164063 51.972656 C 283.246094 51.460938 283.300781 50.9375 283.355469 50.414063 C 283.386719 50.152344 283.429688 49.898438 283.449219 49.636719 C 283.511719 48.839844 283.546875 48.03125 283.546875 47.207031 L 283.546875 32.898438 C 283.546875 30.871094 281.902344 29.226563 279.875 29.226563 "/>
</g>
<path style=" stroke:none;fill-rule:nonzero;fill:rgb(12.5%,81.599426%,69.398499%);fill-opacity:1;" d="M 282.921875 11.210938 C 282.261719 10.234375 281.140625 9.59375 279.875 9.59375 L 271.429688 9.59375 C 270.160156 9.59375 269.042969 10.234375 268.382813 11.210938 C 267.988281 11.796875 267.757813 12.503906 267.757813 13.265625 L 267.757813 18.761719 C 267.757813 20.789063 269.398438 22.433594 271.429688 22.433594 L 279.875 22.433594 C 281.902344 22.433594 283.546875 20.789063 283.546875 18.761719 L 283.546875 13.265625 C 283.546875 12.503906 283.316406 11.796875 282.921875 11.210938 M 237.269531 9.59375 L 228.824219 9.59375 C 227.554688 9.59375 226.4375 10.234375 225.777344 11.210938 C 225.382813 11.796875 225.148438 12.503906 225.148438 13.265625 L 225.148438 18.761719 C 225.148438 20.789063 226.792969 22.433594 228.820313 22.433594 L 237.265625 22.433594 C 239.296875 22.433594 240.941406 20.789063 240.941406 18.761719 L 240.941406 13.265625 C 240.941406 12.503906 240.710938 11.796875 240.3125 11.210938 C 239.652344 10.234375 238.535156 9.59375 237.269531 9.59375 "/>
</g>
</svg>
